<svg width="21" height="19" viewBox="0 0 21 19" fill="none" xmlns="http://www.w3.org/2000/svg">
<path d="M12.1831 8.32469L9.82477 7.22429C9.61897 7.12874 9.44992 7.23584 9.44992 7.46369V9.53639C9.44992 9.76424 9.61897 9.87134 9.82477 9.77579L12.182 8.67539C12.3889 8.57879 12.3889 8.42129 12.1831 8.32469ZM10.4999 -1.57996C4.93282 -1.57996 0.419922 2.93294 0.419922 8.50004C0.419922 14.0671 4.93282 18.58 10.4999 18.58C16.067 18.58 20.5799 14.0671 20.5799 8.50004C20.5799 2.93294 16.067 -1.57996 10.4999 -1.57996ZM10.4999 12.595C5.34022 12.595 5.24992 12.1299 5.24992 8.50004C5.24992 4.87019 5.34022 4.40504 10.4999 4.40504C15.6596 4.40504 15.7499 4.87019 15.7499 8.50004C15.7499 12.1299 15.6596 12.595 10.4999 12.595Z" fill="#BDBDBD"/>
</svg>
